<?xml version="1.0" standalone="no"?>
<!DOCTYPE svg PUBLIC "-//W3C//DTD SVG 1.1//EN" "http://www.w3.org/Graphics/SVG/1.1/DTD/svg11.dtd" >
<svg xmlns="http://www.w3.org/2000/svg">
<metadata>
Created by FontPrep 20130207 at Wed Sep 11 16:12:18 2013
 By andi
2013 published by FontShop International GmbH
</metadata>
<defs>
<font id="bd27045cc25b08166d6bd9ff27106e51" horiz-adv-x='1024' >
  <font-face 
    font-family="MarkPro-Heavy"
    font-weight="800"
    font-stretch="normal"
    units-per-em="2048"
    panose-1="2 0 9 3 0 0 0 0 0 0"
    ascent="1618"
    descent="-430"
    x-height="1005"
    cap-height="1434"
    bbox="-160 -457 2419.03 2063"
    underline-thickness="241"
    underline-position="-25"
    unicode-range="U+000D-2116"
  />
<missing-glyph horiz-adv-x="1000" 
 />
    <glyph glyph-name=".notdef" horiz-adv-x="1000" 
 />
    <glyph glyph-name=".null" horiz-adv-x="0" 
 />
    <glyph glyph-name=".null" horiz-adv-x="0" 
 />
    <glyph glyph-name="nonmarkingreturn" unicode="&#xd;" horiz-adv-x="459" 
 />
    <glyph glyph-name="space" unicode=" " horiz-adv-x="459" 
 />
    <glyph glyph-name="exclam" unicode="!" horiz-adv-x="593" 
d="M296 396q44 0 82 -16q78 -33 114 -114q16 -40 16 -80t-17 -81q-31 -76 -112 -115q-47 -17 -83 -17q-36 -1 -78 17t-68 47q-28 25 -46 67t-18 82t16 80q35 84 115 113q35 17 79 17zM447 513h-300l-38 921h377z" />
    <glyph glyph-name="quotedbl" unicode="&#x22;" horiz-adv-x="1160" 
d="M978 1475v-666h-321v666h321zM503 1475v-666h-321v666h321z" />
    <glyph glyph-name="numbersign" unicode="#" horiz-adv-x="1496" 
d="M612 587h214l57 267h-214zM435 1122l67 312h291l-67 -312h214l67 312h291l-66 -312h186l-57 -268h-186l-57 -267h186l-57 -269h-186l-68 -318h-292l68 318h-214l-68 -318h-290l67 318h-186l56 269h188l56 267h-187l58 268h186z" />
    <glyph glyph-name="dollar" unicode="$" horiz-adv-x="1433" 
d="M1305 468q0 -88 -34 -165q-35 -77 -91 -131q-118 -114 -315 -142v-198h-257v193q-138 12 -270 53q-130 45 -223 112l160 259q214 -143 453 -143q42 0 88 8q96 17 128 62q19 22 20 54t-18 55q-34 37 -109 54t-156 29l-72 12q-445 70 -441 404q3 252 263 374q83 36 177 49
v187h257v-187q185 -21 328 -89q48 -22 96 -48l-144 -260q-204 115 -397 115q-233 0 -240 -122q-4 -60 82 -90q61 -21 208 -45l67 -11q310 -50 409 -234q31 -67 31 -155z" />
    <glyph glyph-name="percent" unicode="%" horiz-adv-x="2021" 
d="M1562 525q-60 0 -108 -44q-42 -50 -42 -98q0 -82 43 -126t92 -44q121 0 153 94q11 28 11 76t-42 98q-47 44 -107 44zM1849 651q116 -111 116 -283q0 -173 -116 -282q-111 -113 -284.5 -113t-290.5 113q-115 115 -115 280t115 284q118 114 291 114t284 -113zM653 0h-312
l1020 1434h311zM458 1221q-32 0 -58 -12q-55 -24 -78 -83q-12 -31 -12 -79.5t31 -81.5q53 -57 119 -57t107 45t41 114.5t-43 108.5q-39 45 -107 45zM172 1348q110 112 285 112t291 -112q114 -118 114 -285t-114 -281q-116 -112 -291 -112t-285 112q-116 110 -116 283
q0 169 116 283z" />
    <glyph glyph-name="ampersand" unicode="&#x26;" horiz-adv-x="1527" 
d="M484 1018q14 -21 38 -47l50 -50q72 49 110 85t39 77q0 42 -34 70q-36 28 -93 28t-91 -28q-33 -28 -33 -71t14 -64zM416 397q0 -67 42 -104q43 -35 103 -35q103 0 190 67l-232 223q-103 -84 -103 -151zM955 126q-189 -153 -414 -153t-344 107q-58 47 -91 118t-33 147
q0 185 148 322q37 35 92 79q-88 90 -125 167q-38 78 -38 169q0 90 32 156q67 140 230 195q82 27 182 27q99 0 181 -26q163 -53 232 -195q31 -66 31 -138q0 -73 -20 -119q-37 -83 -146 -179q-43 -36 -100 -77l181 -177l214 269l232 -169l-239 -303l356 -346h-430z" />
    <glyph glyph-name="quotesingle" unicode="'" horiz-adv-x="685" 
d="M503 1475v-666h-321v666h321z" />
    <glyph glyph-name="parenleft" unicode="(" horiz-adv-x="858" 
d="M420 582q0 -98 24 -196q24 -97 70 -175q100 -167 292 -259l-95 -280q-135 50 -253 138q-232 175 -327 464q-46 142 -46 308q0 317 171 561q171 245 455 348l95 -280q-290 -139 -362 -434q-24 -97 -24 -195z" />
    <glyph glyph-name="parenright" unicode=")" horiz-adv-x="858" 
d="M438 582q0 98 -22 196q-25 97 -72 174q-95 166 -292 260l95 280q284 -103 455 -347q171 -245 171 -563t-175 -568q-80 -116 -198 -204t-253 -137l-95 280q288 138 364 434q22 97 22 195z" />
    <glyph glyph-name="asterisk" unicode="*" horiz-adv-x="971" 
d="M369 1233l-9 242h251l-9 -242l226 83l78 -238l-232 -66l149 -190l-202 -146l-136 200l-133 -200l-204 146l149 190l-231 66l77 238z" />
    <glyph glyph-name="plus" unicode="+" 
d="M480 61v352h-348v263h348v351h269v-351h348v-263h-348v-352h-269z" />
    <glyph glyph-name="comma" unicode="," horiz-adv-x="578" 
d="M501 372l-164 -666h-267l81 666h350z" />
    <glyph glyph-name="hyphen" unicode="-" horiz-adv-x="797" 
d="M707 408h-616v273h616v-273z" />
    <glyph glyph-name="period" unicode="." horiz-adv-x="593" 
d="M298 412q88 0 153 -65t65 -152q0 -45 -16 -84q-36 -85 -119 -119q-41 -19 -83 -19q-87 0 -155 66q-65 67 -65 155t65 153q67 65 155 65z" />
    <glyph glyph-name="slash" unicode="/" horiz-adv-x="1092" 
d="M280 -205h-332l869 1782h332z" />
    <glyph glyph-name="zero" unicode="0" 
d="M617 1142q-104 0 -162 -95q-70 -107 -70 -330t70 -330q57 -95 161 -95t161 95q67 116 67 328t-67 327q-31 53 -70 76q-45 24 -90 24zM1028 1271q158 -188 158 -553q0 -366 -164 -566q-153 -178 -403 -178q-253 0 -415 187t-162 559t168 562q150 177 405 177t413 -188z
" />
    <glyph glyph-name="one" unicode="1" 
d="M508 314v701l-328 -115v325l660 231v-1142h302v-314h-948v314h314z" />
    <glyph glyph-name="two" unicode="2" 
d="M599 1459q224 0 362 -127q65 -59 101 -143t35 -170q0 -144 -48 -238t-167 -213l-260 -260h506v-308h-978v260l496 486q106 104 106 217q0 81 -53 130t-135 49t-167 -48q-33 -21 -72 -58t-53 -54l-196 225q207 252 523 252z" />
    <glyph glyph-name="three" unicode="3" 
d="M568 1459q238 0 382 -113q148 -112 148 -300q0 -113 -55 -195t-153 -129q237 -98 237 -325q0 -109 -46 -187q-139 -236 -534 -236q-133 0 -265 55t-214 155l189 216q59 -61 137 -95t172 -34t151 38q65 39 65 117q0 39 -19 66q-40 57 -133 75q-47 11 -96 11h-162v291h164
q146 0 203 84q17 31 17 81t-55 89t-147 39q-178 0 -290 -136l-190 216q185 217 494 217z" />
    <glyph glyph-name="four" unicode="4" 
d="M1008 553h180v-308h-180v-245h-332v245h-632v232l468 956h365l-437 -880h236v147l110 230h222v-377z" />
    <glyph glyph-name="five" unicode="5" 
d="M1048 1128h-562l-6 -225h142q242 1 382 -121q130 -114 130 -325t-155 -351q-73 -64 -171 -98t-196 -35q-350 0 -541 200l165 244q59 -59 158 -100t196 -41q96 0 148 48t52 125q0 111 -134 149q-48 12 -119 12h-355l19 824h847v-306z" />
    <glyph glyph-name="six" unicode="6" 
d="M610 671q-89 0 -151 -57q-60 -56 -60 -144q-1 -42 15 -78q31 -76 110 -107q46 -15 86 -15q88 0 150 57q29 27 43 63q16 36 16 80t-16 81q-29 74 -113 106q-38 14 -80 14zM643 951h11q235 -1 377 -139q136 -134 136 -344q0 -212 -161 -352q-162 -141 -397 -142
q-235 0 -398 139q-160 141 -160 350q0 106 37 202q38 96 107 199l380 570h400l-344 -484q4 1 12 1z" />
    <glyph glyph-name="seven" unicode="7" 
d="M99 1125v309h1038v-260l-566 -1174h-395l565 1125h-642z" />
    <glyph glyph-name="eight" unicode="8" 
d="M634 1165q-204 0 -204 -151q0 -110 113 -146q31 -10 71 -10q82 0 129 41q55 38 55 112t-52 114t-112 40zM764 552q-63 44 -153 44t-146 -44q-27 -19 -47 -52q-17 -38 -17 -74q1 -36 19 -70t60 -64q42 -29 109 -29q175 0 220 93q17 28 17 70q0 78 -62 126zM615 1459
q231 0 385 -114q153 -114 153 -299q0 -111 -61 -200q-58 -78 -155 -122q110 -43 181 -126t71 -195q0 -111 -45 -187t-124 -132q-162 -110 -405.5 -110t-405.5 110q-79 56 -124 132t-45 158q0 205 153 298q52 34 98 52q-101 46 -154 122q-61 82 -61 190t43 184
q85 155 285 211q100 28 211 28z" />
    <glyph glyph-name="nine" unicode="9" 
d="M829.5 940.5q0.5 66.5 -15.5 103.5q-31 75 -109 105q-42 14 -83.5 13.5t-81.5 -14.5q-80 -30 -114 -105q-15 -37 -15 -79q0 -90 60 -146q60 -55 149.5 -55t149.5 56q59 55 59.5 121.5zM575 482q-231 0 -376 142q-137 134 -137 339q0 107 44 199q87 185 293 259
q99 38 220 38t225 -38q206 -76 293 -256q42 -89 42 -195q0 -185 -145 -401l-381 -569h-398l343 482h-23z" />
    <glyph glyph-name="colon" unicode=":" horiz-adv-x="593" 
d="M298 412q88 0 153 -65t65 -152q0 -45 -16 -84q-36 -85 -119 -119q-41 -19 -83 -19q-87 0 -155 66q-65 67 -65 155t65 153q67 65 155 65zM298 1032q44 0 83 -17q84 -36 117 -118q18 -39 18 -83t-17 -84q-36 -84 -118 -118q-39 -18 -83 -18t-83 16q-85 36 -119 119
q-18 41 -18 85t18 83q34 84 118 117q40 18 84 18z" />
    <glyph glyph-name="semicolon" unicode=";" horiz-adv-x="578" 
d="M501 372l-164 -666h-267l81 666h350zM87 813q0 43 17 83q18 40 50 72q67 64 154 64t152 -65t65.5 -130.5t-17.5 -106.5q-36 -84 -117 -118q-41 -18 -84 -18t-82 16t-71 48t-50 72q-17 40 -17 83z" />
    <glyph glyph-name="less" unicode="&#x3c;" 
d="M1036 9l-842 390v291l842 389v-304l-555 -230l555 -232v-304z" />
    <glyph glyph-name="equal" unicode="=" 
d="M1097 642h-965v264h965v-264zM1097 182h-965v264h965v-264z" />
    <glyph glyph-name="greater" unicode="&#x3e;" 
d="M194 1079l842 -390v-291l-842 -389v304l555 231l-555 231v304z" />
    <glyph glyph-name="question" unicode="?" horiz-adv-x="912" 
d="M306 397q40 0 79 -17q82 -35 113 -112q17 -38 17 -82q0 -85 -62 -149q-68 -64 -148 -64q-36 0 -82 17q-83 39 -112 114q-18 40 -18 82t16 80q33 77 114 115q43 16 83 16zM322 1462q260 0 409 -114q148 -113 148 -296q0 -361 -416 -441l-7 -105h-300v366h104
q265 0 265 135q0 129 -263 131q-82 0 -148 -9l-19 320q102 13 227 13z" />
    <glyph glyph-name="at" unicode="@" horiz-adv-x="1940" 
d="M814.5 511q-0.5 -34 11.5 -66q12 -31 31 -53q40 -45 103.5 -45.5t102.5 46.5q17 19 31 51q10 33 10 67t-10 67q-43 98 -134.5 98t-134.5 -98q-10 -33 -10.5 -67zM1105 894h247v-451q0 -62 19 -94t73 -32t95 58q39 59 39 182t-46 231t-123 178q-77 72 -189 116t-244 43
q-132 1 -246 -45q-226 -91 -314 -318q-45 -110 -45 -250t44 -251q43 -112 123 -194q164 -169 421 -169q219 0 352 103l146 -194q-196 -148 -498 -148q-188 0 -346 64q-321 130 -450 449q-64 158 -64 310q0 278 114 468q111 196 307 301q198 113 458 113q122 0 234 -27
q231 -56 389 -204q241 -225 241 -572q0 -99 -30 -190t-82 -153t-131 -97q-79 -36 -157 -36t-118 9q-90 21 -141 76q-25 24 -41 53q-82 -115 -239 -115t-256 117q-96 113 -96 286t98 289q98 115 241 115q142 0 215 -99v78z" />
    <glyph glyph-name="A" unicode="A" horiz-adv-x="1532" 
d="M589 610h348l-174 484zM1521 0h-365l-108 301h-570l-108 -301h-358l550 1434h409z" />
    <glyph glyph-name="B" unicode="B" horiz-adv-x="1397" 
d="M738 863q203 -1 203 141t-203 142h-266v-283h266zM472 578v-291h293q101 1 155 33t54 112t-54 113q-56 33 -155 33h-293zM746 1434q273 0 412 -104t139 -302q0 -103 -56 -185q-48 -76 -141 -118q102 -35 161 -119q66 -91 66 -195q0 -199 -136 -305t-409 -106h-652v1434
h616z" />
    <glyph glyph-name="C" unicode="C" horiz-adv-x="1523" 
d="M1449 291q-213 -318 -655 -318q-132 1 -274 57q-141 56 -239 152t-154 233q-56 136 -56 382.5t211 454.5t543 208q211 0 378 -92q166 -92 259 -253l-300 -172q-118 190 -341 190q-170 0 -282 -117t-112 -299q0 -102 33 -179q66 -155 211 -209q75 -28 151 -28
q220 0 346 188z" />
    <glyph glyph-name="D" unicode="D" horiz-adv-x="1558" 
d="M472 1117v-801h264q96 0 172 30q152 60 198 211q24 73 24 161q0 183 -100 291t-294 108h-264zM743 1434q336 0 541 -197q96 -90 150 -223t54 -379t-205 -440q-205 -195 -540 -195h-613v1434h613z" />
    <glyph glyph-name="E" unicode="E" horiz-adv-x="1331" 
d="M1228 0h-1098v1434h1094v-309h-752v-247h708v-308h-708v-262h756v-308z" />
    <glyph glyph-name="F" unicode="F" horiz-adv-x="1291" 
d="M1164 548h-692v-548h-342v1434h1083v-309h-741v-268h692v-309z" />
    <glyph glyph-name="G" unicode="G" horiz-adv-x="1597" 
d="M71 716q0 168 56 302t158 234t240 154q139 54 311 54q336 0 531 -208l-244 -239q-117 126 -306 126q-171 1 -283 -117t-111 -312q-1 -100 33 -180q66 -158 211 -215q71 -28 151 -28q306 0 363 259h-350v264h689l6 -54l1 -54q-1 -168 -59 -307t-154 -231
q-199 -190 -484 -190q-160 0 -298 54q-281 110 -403 384q-58 137 -58 304z" />
    <glyph glyph-name="H" unicode="H" horiz-adv-x="1547" 
d="M472 882h603v552h342v-1434h-342v565h-603v-565h-342v1434h342v-552z" />
    <glyph glyph-name="I" unicode="I" horiz-adv-x="602" 
d="M472 0h-342v1434h342v-1434z" />
    <glyph glyph-name="J" unicode="J" horiz-adv-x="1134" 
d="M457 302q213 0 213 266v866h342v-895q0 -275 -146 -423q-70 -70 -168 -106q-100 -36 -230 -37q-130 0 -267 56q-114 53 -175 123l178 259q104 -109 253 -109z" />
    <glyph glyph-name="K" unicode="K" horiz-adv-x="1457" 
d="M472 567v-567h-342v1434h342v-558h124l412 558h420l-556 -700l603 -734h-431l-451 567h-121z" />
    <glyph glyph-name="L" unicode="L" horiz-adv-x="1218" 
d="M1193 0h-1063v1434h342v-1117h721v-317z" />
    <glyph glyph-name="M" unicode="M" horiz-adv-x="1881" 
d="M1751 0h-342v981l-287 -846h-363l-287 843v-978h-342v1434h484l327 -911l325 911h485v-1434z" />
    <glyph glyph-name="N" unicode="N" horiz-adv-x="1584" 
d="M1454 0h-329l-653 874v-874h-342v1434h328l653 -875v875h343v-1434z" />
    <glyph glyph-name="O" unicode="O" horiz-adv-x="1652" 
d="M539 417q113 -116 287 -116t288 116q112 118 112 300t-112 300q-114 116 -288 116t-286 -116q-113 -117 -113 -299.5t112 -300.5zM825.5 1460q166.5 0 306.5 -56q282 -114 394 -390q56 -134 56 -297t-56 -297q-113 -274 -396 -391q-139 -56 -304.5 -56t-305.5 57
q-281 114 -393 390q-56 134 -56 297t55 297q114 277 396 391q137 55 303.5 55z" />
    <glyph glyph-name="P" unicode="P" horiz-adv-x="1348" 
d="M739 790q199 0 199 124t-53 166t-146 43h-267v-333h267zM472 484v-484h-342v1434h614q390 0 507 -283q35 -85 35 -195t-36 -196q-73 -175 -270 -242q-99 -34 -232 -34h-276z" />
    <glyph glyph-name="Q" unicode="Q" horiz-adv-x="1675" 
d="M539 417q57 -57 129 -87t164 -29q92 0 184 43l-226 303h372l46 -62q18 69 18 145t-29 153t-83 134q-114 116 -288 116t-286 -116q-113 -117 -113 -299.5t112 -300.5zM71 717q0 163 55 297q114 277 396 391q137 55 303.5 55t306.5 -56q282 -114 394 -390q56 -134 56 -297
q0 -230 -127 -410l226 -307h-402l-64 84q-175 -111 -389 -111q-166 0 -306 57q-281 114 -393 390q-56 134 -56 297z" />
    <glyph glyph-name="R" unicode="R" horiz-adv-x="1379" 
d="M750 824q198 0 198 150t-198 149h-278v-299h278zM754 1434q258 0 404 -123q138 -124 138 -336q0 -174 -104 -284q-101 -114 -296 -144l412 -547h-408l-378 537h-50v-537h-342v1434h624z" />
    <glyph glyph-name="S" unicode="S" horiz-adv-x="1387" 
d="M502 1018q0 -32 23 -55q46 -42 159 -63q9 -2 113 -20l59 -11q211 -36 332 -136q122 -109 122 -276q0 -165 -84 -273t-225 -159q-140 -52 -258 -52q-424 0 -665 183l171 278q174 -111 279 -131q105 -19 198 -19t147 33q66 33 66 100q0 31 -17 54q-33 38 -144 64
q-119 20 -123 21l-71 11q-456 69 -450 438q0 105 44 187q88 168 303 235q103 32 205 32t198 -9t251 -68q82 -34 155 -74l-152 -281q-213 121 -411 121q-151 0 -209 -73q-16 -25 -16 -57z" />
    <glyph glyph-name="T" unicode="T" horiz-adv-x="1242" 
d="M1217 1116h-424v-1116h-342v1116h-425v318h1191v-318z" />
    <glyph glyph-name="U" unicode="U" horiz-adv-x="1487" 
d="M1371 579q0 -289 -167 -450q-168 -156 -461 -156t-459 157q-167 157 -167 449v855h343v-842q0 -142 75 -216t208 -74q206 0 265 162q20 55 20 128v842h343v-855z" />
    <glyph glyph-name="V" unicode="V" horiz-adv-x="1491" 
d="M950 0h-407l-531 1434h364l373 -1082l374 1082h357z" />
    <glyph glyph-name="W" unicode="W" horiz-adv-x="2230" 
d="M1793 0h-408l-270 925l-270 -925h-408l-418 1434h354l273 -1027l287 1027h370l286 -1030l274 1030h348z" />
    <glyph glyph-name="X" unicode="X" horiz-adv-x="1388" 
d="M902 724l469 -724h-392l-287 466l-286 -466h-389l469 724l-462 710h392l280 -457l281 457h389z" />
    <glyph glyph-name="Y" unicode="Y" horiz-adv-x="1431" 
d="M892 0h-343v550l-545 884h396l322 -573l320 573h385l-535 -882v-552z" />
    <glyph glyph-name="Z" unicode="Z" horiz-adv-x="1314" 
d="M1237 308v-308h-1159v268l703 857h-702v309h1158v-269l-705 -857h705z" />
    <glyph glyph-name="bracketleft" unicode="[" horiz-adv-x="774" 
d="M722 -269h-592v1703h592v-287h-268v-1130h268v-286z" />
    <glyph glyph-name="backslash" unicode="\" horiz-adv-x="1092" 
d="M-56 1577h331l870 -1782h-332z" />
    <glyph glyph-name="bracketright" unicode="]" horiz-adv-x="774" 
d="M52 1434h592v-1703h-592v286h269v1130h-269v287z" />
    <glyph glyph-name="asciicircum" unicode="^" 
d="M103 650l366 784h291l365 -784h-314l-201 478l-199 -478h-308z" />
    <glyph glyph-name="underscore" unicode="_" horiz-adv-x="962" 
d="M968 -336h-973v242h973v-242z" />
    <glyph glyph-name="grave" unicode="`" horiz-adv-x="1024" 
d="M505 1132l-285 339h368l217 -339h-300z" />
    <glyph glyph-name="a" unicode="a" horiz-adv-x="1236" 
d="M448 340q59 -68 153 -68t157 66q60 62 60 165t-61 166q-61 64 -155 64q-96 0 -154 -67t-58.5 -162.5t58.5 -163.5zM568.5 1032q145.5 0 246.5 -136v109h310v-1005h-310v109q-106 -136 -297 -136t-325 154q-59 68 -99 168q-35 101 -35 209q1 108 37 206q72 193 244 281
q83 41 228.5 41z" />
    <glyph glyph-name="b" unicode="b" horiz-adv-x="1236" 
d="M479 337q60 -65 156 -65q95 0 154 68t59 163.5t-59 162.5t-155 67t-155 -65q-60 -62 -60 -164t60 -167zM432 908q105 124 292 124t320 -153q62 -71 98 -169t36 -206t-35 -209q-80 -199 -247 -281q-83 -41 -186 -41q-183 0 -288 135v-108h-309v1475h319v-567z" />
    <glyph glyph-name="c" unicode="c" horiz-adv-x="1062" 
d="M779 637q-76 96 -173 96q-96 1 -158 -61t-61.5 -168.5t59.5 -168.5q59 -63 158 -63q100 0 177 98l250 -179q-70 -101 -181 -159t-239 -59q-129 0 -229 40q-203 80 -284 278q-39 95 -39 211t40 214q80 196 282 277q102 39 231 39q130 0 238 -58t180 -162z" />
    <glyph glyph-name="d" unicode="d" horiz-adv-x="1235" 
d="M448 340q59 -68 153 -68t157 66q60 62 60 165t-61 166q-61 64 -155 64q-96 0 -154 -67t-58.5 -162.5t58.5 -163.5zM59 504q1 108 37 206q72 193 244 281q83 41 187 41q175 0 278 -124v567h319v-1475h-309v109q-106 -136 -297 -136t-325 154q-59 68 -99 168
q-35 101 -35 209z" />
    <glyph glyph-name="e" unicode="e" horiz-adv-x="1136" 
d="M757 606q-41 154 -182 154q-73 0 -120 -39q-46 -42 -64 -115h366zM1077 503q0 -67 -6 -100h-681q38 -160 215 -160q122 0 219 88l207 -193q-165 -165 -442 -165q-238 0 -383 145q-147 146 -147 378q1 238 143 386q144 150 372 150q224 0 364 -148q139 -148 139 -381z" />
    <glyph glyph-name="f" unicode="f" horiz-adv-x="875" 
d="M790 1158q-90 44 -157 44q-106 0 -106 -127v-70h282v-284h-282v-721h-320v721h-173v284h173v77q1 204 103 312q102 107 295 107t324 -106z" />
    <glyph glyph-name="g" unicode="g" horiz-adv-x="1227" 
d="M600 739q-93 0 -152 -62q-58 -62 -58 -150.5t59 -155.5q62 -62 152 -62t149 62q56 62 56 152.5t-56 154.5q-57 61 -150 61zM802 144q-101 -127 -289 -127t-321 145q-133 144 -133 362t96 322t182 145t188 41q179 0 281 -132v105h310v-909q0 -247 -148 -387
q-148 -139 -397 -139q-129 0 -211 22q-165 45 -247 106l113 255q143 -103 323 -103q98 0 176 56q77 62 77 176v62z" />
    <glyph glyph-name="h" unicode="h" horiz-adv-x="1180" 
d="M719 1032q153 0 254 -99q102 -106 102 -274v-659h-320v546q0 88 -42 136t-114 49q-72 0 -118 -46q-48 -48 -48 -144v-541h-320v1476h320v-577q93 133 286 133z" />
    <glyph glyph-name="i" unicode="i" horiz-adv-x="544" 
d="M80 1314q0 38 14 75t42 63q26 26 61 40t75 14t74 -14q36 -14 62 -40t40 -63t15 -75q0 -38 -14 -73q-31 -76 -103 -102q-36 -16 -74 -16t-76 16q-72 28 -102 102q-14 35 -14 73zM433 0h-320v1005h320v-1005z" />
    <glyph glyph-name="j" unicode="j" horiz-adv-x="545" 
d="M81 1314q0 40 14 76t41 62q56 54 137 54q82 0 136 -56q55 -52 55 -136q0 -40 -14 -73q-29 -74 -102 -102q-40 -16 -76 -16t-75 16q-73 28 -103 102q-14 33 -13 73zM47 -136q68 0 68 90v1051h319v-1072q0 -171 -89 -269t-240 -98q-45 0 -79 6.5t-45 8.5t-29 9l31 284
q30 -10 64 -10z" />
    <glyph glyph-name="k" unicode="k" horiz-adv-x="1131" 
d="M433 672h77l238 333h388l-372 -475l373 -530h-387l-248 388h-69v-388h-320v1475h320v-803z" />
    <glyph glyph-name="l" unicode="l" horiz-adv-x="544" 
d="M433 0h-320v1475h320v-1475z" />
    <glyph glyph-name="m" unicode="m" horiz-adv-x="1823" 
d="M1343 1032q87 0 155 -26q147 -55 194 -191q26 -65 26 -156v-659h-320v546q0 88 -42 136t-118 49q-111 0 -151 -105q-12 -36 -12 -85v-541h-320v546q0 88 -42 136t-114 49q-72 0 -118 -46q-48 -48 -48 -144v-541h-320v1005h307v-126q92 153 300 153t305 -168
q99 168 318 168z" />
    <glyph glyph-name="n" unicode="n" horiz-adv-x="1180" 
d="M719 1032q153 0 254 -99q102 -106 102 -274v-659h-320v546q0 88 -42 136t-114 49q-72 0 -118 -46q-48 -48 -48 -144v-541h-320v1005h307v-126q92 153 299 153z" />
    <glyph glyph-name="o" unicode="o" horiz-adv-x="1209" 
d="M449 668q-62 -65 -62 -164t62 -167q65 -65 155 -65q42 0 86 18q132 54 132 213q0 104 -62 166q-57 64 -153 64t-158 -65zM995 882q155 -152 155 -379t-155 -379q-157 -151 -391.5 -151t-389.5 151q-155 152 -155 379t155 378t390 151t391 -150z" />
    <glyph glyph-name="p" unicode="p" horiz-adv-x="1236" 
d="M479 337q60 -65 156 -65q95 0 154 68t59 163.5t-59 162.5t-155 67t-155 -65q-60 -62 -60 -164t60 -167zM422 896q104 136 296 136q193 0 326 -153q62 -71 98 -169t36 -206t-35 -209q-80 -199 -247 -281q-83 -41 -186 -41q-174 0 -278 122v-505h-319v1415h309v-109z" />
    <glyph glyph-name="q" unicode="q" horiz-adv-x="1235" 
d="M448 340q59 -68 153 -68t157 66q60 62 60 165t-61 166q-61 64 -155 64q-96 0 -154 -67t-58.5 -162.5t58.5 -163.5zM568.5 1032q145.5 0 246.5 -136v109h309v-1415h-319v505q-106 -122 -292 -122t-320 154q-59 68 -99 168q-35 101 -35 209q1 108 37 206q72 193 244 281
q83 41 228.5 41z" />
    <glyph glyph-name="r" unicode="r" horiz-adv-x="840" 
d="M694 1032q57 0 113 -15l-30 -320q-86 27 -161 27q-183 0 -183 -181v-543h-320v1005h307v-116q88 143 274 143z" />
    <glyph glyph-name="s" unicode="s" horiz-adv-x="1041" 
d="M421 712q0 -32 44 -44q22 -9 41 -12t42 -7t35 -6l73 -11q329 -49 329 -305q-1 -81 -33 -148q-64 -133 -235 -181q-93 -24 -214 -24q-206 0 -349 59q-47 15 -98 47l112 248q159 -95 354 -95q141 0 141 66q0 30 -37 43q-39 16 -122 29l-59 8q-181 25 -267 103t-87 213
q0 160 115 248t319 88q168 0 256 -27q89 -27 176 -59l-89 -250q-197 78 -322 78t-125 -61z" />
    <glyph glyph-name="t" unicode="t" horiz-adv-x="982" 
d="M684 272q65 0 174 63l111 -250q-88 -59 -146 -78q-211 -70 -386 -5q-216 88 -216 384v335h-187v284h187v292h321v-292h343v-284h-343v-294q0 -124 86 -146q25 -9 56 -9z" />
    <glyph glyph-name="u" unicode="u" horiz-adv-x="1180" 
d="M1075 430q0 -220 -141 -346q-130 -111 -344 -111t-350 117q-135 117 -135 341v574h321v-546q0 -140 98 -175q34 -12 87 -12t87 34q58 60 58 153v546h319v-575z" />
    <glyph glyph-name="v" unicode="v" horiz-adv-x="1165" 
d="M768 0h-366l-389 1005h349l225 -656l226 656h339z" />
    <glyph glyph-name="w" unicode="w" horiz-adv-x="1836" 
d="M1283 364l196 641h337l-347 -1005h-357l-196 601l-193 -601h-355l-348 1005h341l194 -638l203 638h320z" />
    <glyph glyph-name="x" unicode="x" horiz-adv-x="1175" 
d="M799 507l354 -507h-373l-197 289l-192 -289h-368l357 507l-346 498h375l186 -286l184 286h369z" />
    <glyph glyph-name="y" unicode="y" horiz-adv-x="1186" 
d="M438 -412h-350l344 633l-423 784h368l228 -452l224 452h351z" />
    <glyph glyph-name="z" unicode="z" horiz-adv-x="1063" 
d="M985 284v-284h-906v229l453 492h-436v284h879v-237l-444 -484h454z" />
    <glyph glyph-name="braceleft" unicode="{" horiz-adv-x="902" 
d="M766 1156q-74 0 -116 -43t-38 -123l3 -82q7 -122 -42 -204q-48 -83 -177 -121q67 -21 112 -54q85 -66 102 -164q8 -53 5 -109l-3 -82q-4 -81 38 -123t116 -42h84v-278h-128q-221 0 -331 123q-109 117 -101 330l4 89q4 85 -52 129t-164 44v272q105 0 163 44q57 47 53 129
l-4 89q-12 323 238 422q80 32 194 32h128v-278h-84z" />
    <glyph glyph-name="bar" unicode="|" horiz-adv-x="685" 
d="M503 -271h-321v1705h321v-1705z" />
    <glyph glyph-name="braceright" unicode="}" horiz-adv-x="902" 
d="M136 8q74 0 116 42t38 124l-3 82q-6 122 43 206q50 84 176 120q-189 60 -213 218q-9 51 -6 108l3 82q4 81 -38 123t-116 42h-84v279h128q115 0 194 -33q80 -29 136 -90q110 -119 102 -331l-4 -89q-4 -81 54 -127t162 -46v-272q-108 0 -164 -45t-52 -128l4 -89
q8 -211 -103 -332t-329 -121h-128v277h84z" />
    <glyph glyph-name="asciitilde" unicode="~" 
d="M810 625q82 0 173 101l141 -191q-58 -79 -142 -123t-166 -45t-134 15t-98 36q-48 20 -86 36t-79 16q-75 0 -172 -101l-142 190q56 78 142 123t167 45q82 0 134 -15q52 -16 103 -38t85 -36t74 -13z" />
    <glyph glyph-name="uni00A0" unicode="&#xa0;" horiz-adv-x="459" 
 />
    <glyph glyph-name="exclamdown" unicode="&#xa1;" horiz-adv-x="593" 
d="M298 609q-42 1 -81 17q-79 34 -115 113q-16 39 -16 79t16 83q39 82 117 115q39 16 79 16t77 -16q78 -33 117 -115q16 -43 16 -83t-16 -78q-35 -84 -115 -113q-37 -18 -79 -18zM146 493h300l39 -921h-377z" />
    <glyph glyph-name="cent" unicode="&#xa2;" horiz-adv-x="1433" 
d="M890 0h-257v205q-92 20 -167 66q-154 96 -211 264q-29 87 -29 183q0 291 239 443q78 49 168 68v205h257v-200q196 -38 318 -204l-240 -173q-83 98 -188 98q-106 0 -170 -66t-64 -145.5t16 -124.5q33 -90 120 -124q42 -17 86 -17q119 0 203 100l237 -176
q-120 -163 -318 -202v-200z" />
    <glyph glyph-name="sterling" unicode="&#xa3;" horiz-adv-x="1433" 
d="M1248 0h-1101v308h158v282h-158v254h158v47q0 273 168 428q156 140 400 140q259 0 410 -151l-220 -236q-76 70 -188 70t-168 -61q-70 -60 -70 -196v-41h477v-254h-477v-282h611v-308z" />
    <glyph glyph-name="currency" unicode="&#xa4;" horiz-adv-x="1433" 
d="M532 530q75 -75 187 -75t184 75q77 77 77 185q0 51 -21 103t-56 83q-31 35 -83 56t-102 21t-102 -21t-84 -56q-75 -69 -75 -186q0 -110 75 -185zM715 1228q143 0 265 -72l163 163l177 -176l-163 -163q73 -118 73 -263t-73 -263l164 -163l-177 -176l-164 161
q-115 -71 -261 -71t-264 73l-163 -163l-176 176l163 164q-72 118 -72 262t72 261l-164 165l176 176l164 -164q117 73 260 73z" />
    <glyph glyph-name="yen" unicode="&#xa5;" horiz-adv-x="1433" 
d="M1252 263h-362v-263h-332v263h-363v203h363v115h-363v202h277l-436 651h383l305 -482l301 482h373l-428 -651h282v-202h-362v-115h362v-203z" />
    <glyph glyph-name="brokenbar" unicode="&#xa6;" horiz-adv-x="685" 
d="M503 -271h-321v710h321v-710zM503 723h-321v711h321v-711z" />
    <glyph glyph-name="section" unicode="&#xa7;" horiz-adv-x="1330" 
d="M638 666l-73 11q-37 -12 -63 -40q-24 -29 -24 -61q0 -56 69 -80q53 -21 124 -30t150 -26q72 32 72 95t-58 88t-197 43zM163 1040q0 93 38 172q85 161 276 218q96 29 223 29t248 -26q120 -26 262 -102l-138 -262q-135 71 -224 87q-89 15 -138 15q-152 0 -190 -57
q-15 -18 -15 -45q0 -69 168 -100q9 -1 103 -19l53 -8q199 -35 303 -120q105 -85 105 -219q0 -176 -136 -277q108 -90 108 -222q-1 -231 -171 -349q-146 -101 -375 -101q-351 0 -570 153l156 262q110 -66 202 -97t226 -31t173 58q15 20 14.5 58.5t-70.5 62.5q-38 13 -183 40
l-62 11q-196 34 -301 117q-112 93 -112 247q0 155 139 253q-112 88 -112 252z" />
    <glyph glyph-name="dieresis" unicode="&#xa8;" horiz-adv-x="1147" 
d="M808 1484q38 0 73 -14q72 -29 104 -102q14 -38 14 -76t-14 -74q-30 -76 -102 -102q-34 -15 -75 -15q-40 -1 -74 13q-73 29 -103 103q-15 41 -15 75t15 72q31 78 101 104q38 16 76 16zM334 1484q82 0 136 -55q55 -55 55 -137q-1 -80 -55 -136q-54 -55 -136 -55
q-40 -1 -74 13q-74 29 -102 103q-16 39 -16 75t16 76q28 72 103 102q35 14 73 14z" />
    <glyph glyph-name="copyright" unicode="&#xa9;" horiz-adv-x="1861" 
d="M782 723q0 -43 14 -77q38 -94 143 -93q106 0 165 101l211 -136q-56 -92 -151 -147t-203 -55q-109 0 -187 30q-164 62 -223 215q-31 77 -31 167q0 185 118 298t304 113q117 0 229 -60q52 -31 91 -71q38 -41 63 -97l-228 -109q-50 101 -159 101q-108 -1 -144 -105
q-12 -32 -12 -75zM361.5 728q0.5 -112 46.5 -218q90 -207 301 -300q103 -44 223 -44q231 0 401 164q79 79 121 179q45 100 45 276.5t-168 339.5q-167 163 -399 163q-120 0 -224 -45q-209 -91 -302 -297q-45 -106 -44.5 -218zM931 1551q343 0 599 -240q159 -159 217 -367
q30 -108 30 -216t-30 -216q-90 -324 -388 -496q-194 -112 -429 -112.5t-426 112.5q-191 109 -303 295q-116 193 -116 473t247 527q256 240 599 240z" />
    <glyph glyph-name="ordfeminine" unicode="&#xaa;" horiz-adv-x="816" 
d="M368 733q84 0 148 70v75h-122q-60 0 -86 -22t-26.5 -51.5t21.5 -50.5t65 -21zM639 1245q93 -79 93 -241v-422h-211v66q-85 -85 -203 -85t-195 63q-69 60 -69 165q0 106 80 166t228 60h147q-12 113 -143 113q-106 0 -196 -64l-85 166q121 92 291 92t263 -79z" />
    <glyph glyph-name="guillemotleft" unicode="&#xab;" horiz-adv-x="1138" 
d="M584 133h-311l-201 412l201 410h311l-202 -410zM1068 133h-310l-202 412l202 410h310l-202 -410z" />
    <glyph glyph-name="logicalnot" unicode="&#xac;" 
d="M1097 676v-586h-270v323h-695v263h965z" />
    <glyph glyph-name="uni00AD" unicode="&#xad;" horiz-adv-x="797" 
d="M707 408h-616v273h616v-273z" />
    <glyph glyph-name="registered" unicode="&#xae;" horiz-adv-x="1022" 
d="M532 1044q55 0 55 35t-55 35h-80v-70h80zM714 1085q0 -116 -122 -138l127 -150h-147l-111 146h-9v-146h-124v426h207q91 -1 135 -41t44 -97zM739 780q96 100 96.5 231t-95.5 227t-230 96t-229 -95.5t-95 -228t97 -229.5t226 -97q130 0 230 96zM168 1341q139 139 343 139
t343 -139q64 -59 102 -145t38 -170q0 -143 -66 -254q-66 -112 -172 -168q-112 -64 -262 -64q-87 0 -175 38q-178 78 -253 249q-37 83 -37 183t38 185q38 86 101 146z" />
    <glyph glyph-name="macron" unicode="&#xaf;" horiz-adv-x="1136" 
d="M208 1419h721v-256h-721v256z" />
    <glyph glyph-name="degree" unicode="&#xb0;" horiz-adv-x="896" 
d="M448 878q36 0 64 12q59 26 86 89q13 27 13 77t-48 102q-48 48 -115 48q-34 0 -64 -13q-59 -26 -87 -87q-12 -28 -12 -63t12 -64q46 -101 151 -101zM448 631q-90 0 -163 33q-77 30 -134 88q-122 123 -122 296t123 289q52 55 131 89t209 34t252 -122t123 -291
q0 -168 -122 -295q-126 -121 -297 -121z" />
    <glyph glyph-name="plusminus" unicode="&#xb1;" 
d="M1097 0h-965v264h965v-264zM480 360v258h-348v265h348v326h269v-326h348v-265h-348v-258h-269z" />
    <glyph glyph-name="twosuperior" unicode="&#xb2;" horiz-adv-x="747" 
d="M377 1449q137 0 222 -75q84 -75 84 -177q0 -103 -31 -159q-11 -23 -44 -65q-38 -42 -68 -69l-126 -112h287v-210h-607v178l295 271q60 55 60 103t-29 74q-32 24 -71 24q-82 0 -175 -93l-129 156q134 154 332 154z" />
    <glyph glyph-name="threesuperior" unicode="&#xb3;" horiz-adv-x="748" 
d="M343 1449q140 0 237 -67q93 -71 93 -180q0 -134 -123 -191q66 -25 103 -75t37 -115q0 -124 -99 -189q-99 -66 -220 -66q-227 0 -336 126l125 146q74 -74 184 -74t110 77q0 36 -40 57t-96 21h-95v186h99q48 0 84 19q33 20 33 73t-108 53t-174 -76l-120 148
q119 127 306 127z" />
    <glyph glyph-name="acute" unicode="&#xb4;" horiz-adv-x="1024" 
d="M220 1132l217 339h368l-285 -339h-300z" />
    <glyph glyph-name="mu" unicode="&#xb5;" horiz-adv-x="1179" 
d="M414 -410h-309v1415h321v-546q0 -91 42 -139t117 -47q111 0 150 106q13 39 13 85v541h320v-1005h-307v126q-93 -154 -299 -154q-26 0 -48 3v-385z" />
    <glyph glyph-name="paragraph" unicode="&#xb6;" horiz-adv-x="1340" 
d="M913 1434h245v-1434h-245v1434zM87 1006q0 194 122 307q122 116 351 120v1h245v-1434h-245v572q-110 1 -204 34q-269 106 -269 400z" />
    <glyph glyph-name="periodcentered" unicode="&#xb7;" horiz-adv-x="702" 
d="M352 763.5q40 0.5 81 -17.5q87 -37 120 -117q17 -43 17 -85q0 -90 -64 -155q-69 -65 -133.5 -65t-102.5 16q-81 35 -120 120q-18 44 -18 84t18 82q36 82 118 119q44 18 84 18.5z" />
    <glyph glyph-name="cedilla" unicode="&#xb8;" horiz-adv-x="740" 
d="M465 -329h-294l114 336h285z" />
    <glyph glyph-name="onesuperior" unicode="&#xb9;" horiz-adv-x="553" 
d="M445 582h-227v557l-183 -64v220l410 152v-865z" />
    <glyph glyph-name="ordmasculine" unicode="&#xba;" horiz-adv-x="891" 
d="M511 1105q-28 12 -80 12t-104 -48q-47 -49 -47 -126t47 -126q52 -48 104 -48t80 12t54 36q47 55 47 109q0 89 -47 143q-26 24 -54 36zM444 1324q82 0 156 -29q149 -59 208 -200q30 -73 30 -151q0 -166 -112 -272q-50 -50 -124 -80t-158 -29q-170 0 -279 109
q-54 51 -81 120q-30 70 -30 152q0 165 112 272q112 108 278 108z" />
    <glyph glyph-name="guillemotright" unicode="&#xbb;" horiz-adv-x="1138" 
d="M555 955h310l202 -411l-202 -411h-310l202 411zM71 955h310l202 -411l-202 -411h-310l201 411z" />
    <glyph glyph-name="onequarter" unicode="&#xbc;" horiz-adv-x="1758" 
d="M445 582h-227v557l-183 -64v220l410 152v-865zM1631 338h100v-202h-100v-136h-227v136h-379v156l266 559h247l-247 -513h113v88l67 141h160v-229zM516 0h-279l904 1434h279z" />
    <glyph glyph-name="onehalf" unicode="&#xbd;" horiz-adv-x="1826" 
d="M445 582h-227v557l-183 -64v220l410 152v-865zM1678 793q84 -75 84 -209q0 -71 -21 -112q-41 -78 -122 -149l-126 -113h288v-210h-607v178l294 272q60 54 60 102t-29 75q-31 23 -63 23t-60 -7q-61 -24 -123 -86l-129 157q19 21 54 53q110 100 263 100t237 -74zM516 0
h-279l904 1434h279z" />
    <glyph glyph-name="threequarters" unicode="&#xbe;" horiz-adv-x="1928" 
d="M343 1449q140 0 237 -67q93 -71 93 -180q0 -134 -123 -191q66 -25 103 -75t37 -115q0 -124 -99 -189q-99 -66 -220 -66q-227 0 -336 126l125 146q74 -74 184 -74t110 77q0 36 -40 57t-96 21h-95v186h99q48 0 84 19q33 20 33 73t-108 53t-174 -76l-120 148
q119 127 306 127zM1802 338h100v-202h-100v-136h-227v136h-379v156l266 559h247l-247 -513h113v88l67 141h160v-229zM687 0h-279l904 1434h279z" />
    <glyph glyph-name="questiondown" unicode="&#xbf;" horiz-adv-x="912" 
d="M608 608q-36 0 -82 17q-76 36 -112 112q-17 47 -17 83q-1 86 63 148q64 64 147 64q42 0 80 -16q77 -32 116 -115q16 -43 16.5 -82t-17.5 -81t-46 -66q-25 -28 -68 -46q-44 -18 -80 -18zM449 393l8 107h300v-367h-105q-265 0 -265 -134q0 -129 263 -131q96 0 149 8
l18 -319q-105 -14 -226 -14q-263 0 -409 115q-148 108 -148 294q0 361 415 441z" />
    <glyph glyph-name="Agrave" unicode="&#xc0;" horiz-adv-x="1532" 
d="M383 1885h368l217 -340h-300zM589 610h348l-174 484zM1521 0h-365l-108 301h-570l-108 -301h-358l550 1434h409z" />
    <glyph glyph-name="Aacute" unicode="&#xc1;" horiz-adv-x="1532" 
d="M553 1545l217 340h368l-285 -340h-300zM589 610h348l-174 484zM1521 0h-365l-108 301h-570l-108 -301h-358l550 1434h409z" />
    <glyph glyph-name="Acircumflex" unicode="&#xc2;" horiz-adv-x="1532" 
d="M884 1535l-116 147l-117 -147h-291l231 340h352l232 -340h-291zM589 610h348l-174 484zM1521 0h-365l-108 301h-570l-108 -301h-358l550 1434h409z" />
    <glyph glyph-name="Atilde" unicode="&#xc3;" horiz-adv-x="1532" 
d="M637 1875q89 1 157 -33q83 -40 103 -41q53 0 118 71l175 -170q-108 -156 -294 -156q-99 0 -223 66q-14 8 -37 8q-52 0 -118 -70l-175 169q110 156 294 156zM589 610h348l-174 484zM1521 0h-365l-108 301h-570l-108 -301h-358l550 1434h409z" />
    <glyph glyph-name="Adieresis" unicode="&#xc4;" horiz-adv-x="1532" 
d="M1004 1897q127 0 178 -115q14 -39 14 -77t-14 -73q-31 -76 -103 -102q-37 -16 -75 -16t-73 14q-73 30 -104 102q-14 37 -14 75t14 77q32 73 103 101q34 14 74 14zM530 1897q83 0 136 -55q56 -52 56 -136q0 -82 -54 -136q-58 -56 -138 -56q-37 0 -73 14q-76 31 -103 102
q-15 36 -15 75t15 77q28 71 102 101q35 14 74 14zM589 610h348l-174 484zM1521 0h-365l-108 301h-570l-108 -301h-358l550 1434h409z" />
    <glyph glyph-name="Aring" unicode="&#xc5;" horiz-adv-x="1532" 
d="M662 1786q0 -22 13 -54t44 -43q30 -11 60 -11t61 30t31 65q0 84 -64 111q-19 9 -41 9t-39 -9q-39 -14 -57 -56q-8 -20 -8 -42zM567 1587q-83 80 -83 199q0 52 23 106q44 103 149 150q51 21 110 21t109 -21t90 -60q41 -38 63 -90t22 -108q0 -112 -83 -195
q-86 -82 -202 -82q-115 0 -198 80zM589 610h348l-174 484zM1521 0h-365l-108 301h-570l-108 -301h-358l550 1434h409z" />
    <glyph glyph-name="AE" unicode="&#xc6;" horiz-adv-x="2342" 
d="M1142 581v499l-337 -499h337zM2239 0h-1097v271h-545l-182 -271h-405l991 1434h1234v-309h-751v-247h707v-308h-707v-262h755v-308z" />
    <glyph glyph-name="Ccedilla" unicode="&#xc7;" horiz-adv-x="1523" 
d="M822 301q220 0 346 188l281 -198q-81 -121 -204 -201t-277 -105l-99 -314h-314l108 318q-129 23 -240 87t-188 156q-164 197 -164 485q0 327 211 535t543 208q211 0 378 -92q166 -92 259 -253l-300 -172q-118 190 -341 190q-170 0 -282 -117t-112 -299q0 -102 33 -179
q66 -155 211 -209q75 -28 151 -28z" />
    <glyph glyph-name="Egrave" unicode="&#xc8;" horiz-adv-x="1331" 
d="M292 1885h367l218 -340h-300zM1228 0h-1098v1434h1094v-309h-752v-247h708v-308h-708v-262h756v-308z" />
    <glyph glyph-name="Eacute" unicode="&#xc9;" horiz-adv-x="1331" 
d="M462 1545l217 340h368l-285 -340h-300zM1228 0h-1098v1434h1094v-309h-752v-247h708v-308h-708v-262h756v-308z" />
    <glyph glyph-name="Ecircumflex" unicode="&#xca;" horiz-adv-x="1331" 
d="M793 1535l-116 147l-117 -147h-291l231 340h352l231 -340h-290zM1228 0h-1098v1434h1094v-309h-752v-247h708v-308h-708v-262h756v-308z" />
    <glyph glyph-name="Edieresis" unicode="&#xcb;" horiz-adv-x="1331" 
d="M933.5 1897q59.5 0 115.5 -55t56 -136q1 -40 -13 -74q-28 -71 -103 -102q-41 -16 -77 -16t-72 14q-76 31 -103 102q-15 36 -15 75t14 75q29 75 102 102q36 15 95.5 15zM439 1897q77 0 136 -55q56 -58 56 -137q0 -75 -56 -135q-60 -56 -137 -56q-36 0 -72 14
q-73 30 -104 102q-14 37 -14 75t14 77q32 73 103 101q35 14 74 14zM1228 0h-1098v1434h1094v-309h-752v-247h708v-308h-708v-262h756v-308z" />
    <glyph glyph-name="Igrave" unicode="&#xcc;" horiz-adv-x="602" 
d="M-83 1885h368l217 -340h-300zM472 0h-342v1434h342v-1434z" />
    <glyph glyph-name="Iacute" unicode="&#xcd;" horiz-adv-x="602" 
d="M87 1545l217 340h368l-285 -340h-300zM472 0h-342v1434h342v-1434z" />
    <glyph glyph-name="Icircumflex" unicode="&#xce;" horiz-adv-x="602" 
d="M418 1535l-116 147l-117 -147h-290l230 340h352l232 -340h-291zM472 0h-342v1434h342v-1434z" />
    <glyph glyph-name="Idieresis" unicode="&#xcf;" horiz-adv-x="602" 
d="M538 1897q80 0 136 -55t56 -136q0 -40 -14 -74q-28 -71 -102 -102q-40 -16 -76 -16t-73 14q-76 31 -103 102q-15 36 -15 75t15 77q28 71 102 101q36 14 74 14zM64 1897q80 0 137 -55q55 -57 55 -135t-55 -137q-58 -56 -137 -56q-37 0 -73 14q-73 30 -104 102
q-14 37 -14 75t14 77q32 73 103 101q35 14 74 14zM472 0h-342v1434h342v-1434z" />
    <glyph glyph-name="Eth" unicode="&#xd0;" horiz-adv-x="1659" 
d="M901 577h-328v-261h265q95 0 171 30q223 88 223 371q0 84 -24 160q-48 153 -196 210q-79 30 -174 30h-265v-246h328v-294zM845 1434q336 0 539 -197q96 -89 150 -223t54 -297t-54 -297t-150 -223q-203 -197 -539 -197h-614v577h-153v294h153v563h614z" />
    <glyph glyph-name="Ntilde" unicode="&#xd1;" horiz-adv-x="1584" 
d="M674 1875q88 1 156 -33q83 -40 104 -41q53 0 118 71l175 -170q-108 -156 -294 -156q-99 0 -223 66q-14 8 -37 8q-50 0 -118 -70l-175 169q110 156 294 156zM1454 0h-329l-653 874v-874h-342v1434h328l653 -875v875h343v-1434z" />
    <glyph glyph-name="Ograve" unicode="&#xd2;" horiz-adv-x="1652" 
d="M442 1885h368l217 -340h-300zM539 417q113 -116 287 -116t288 116q112 118 112 300t-112 300q-114 116 -288 116t-286 -116q-113 -117 -113 -299.5t112 -300.5zM825.5 1460q166.5 0 306.5 -56q282 -114 394 -390q56 -134 56 -297t-56 -297q-113 -274 -396 -391
q-139 -56 -304.5 -56t-305.5 57q-281 114 -393 390q-56 134 -56 297t55 297q114 277 396 391q137 55 303.5 55z" />
    <glyph glyph-name="Oacute" unicode="&#xd3;" horiz-adv-x="1652" 
d="M612 1545l217 340h368l-285 -340h-300zM539 417q113 -116 287 -116t288 116q112 118 112 300t-112 300q-114 116 -288 116t-286 -116q-113 -117 -113 -299.5t112 -300.5zM825.5 1460q166.5 0 306.5 -56q282 -114 394 -390q56 -134 56 -297t-56 -297q-113 -274 -396 -391
q-139 -56 -304.5 -56t-305.5 57q-281 114 -393 390q-56 134 -56 297t55 297q114 277 396 391q137 55 303.5 55z" />
    <glyph glyph-name="Ocircumflex" unicode="&#xd4;" horiz-adv-x="1652" 
d="M943 1535l-116 147l-116 -147h-291l230 340h352l232 -340h-291zM539 417q113 -116 287 -116t288 116q112 118 112 300t-112 300q-114 116 -288 116t-286 -116q-113 -117 -113 -299.5t112 -300.5zM825.5 1460q166.5 0 306.5 -56q282 -114 394 -390q56 -134 56 -297
t-56 -297q-113 -274 -396 -391q-139 -56 -304.5 -56t-305.5 57q-281 114 -393 390q-56 134 -56 297t55 297q114 277 396 391q137 55 303.5 55z" />
    <glyph glyph-name="Otilde" unicode="&#xd5;" horiz-adv-x="1652" 
d="M696 1875q88 0 156 -33q84 -41 104 -41q53 0 118 71l175 -170q-108 -156 -294 -156q-99 0 -223 66q-14 8 -37 8q-49 0 -117 -70l-176 169q110 156 294 156zM539 417q113 -116 287 -116t288 116q112 118 112 300t-112 300q-114 116 -288 116t-286 -116
q-113 -117 -113 -299.5t112 -300.5zM825.5 1460q166.5 0 306.5 -56q282 -114 394 -390q56 -134 56 -297t-56 -297q-113 -274 -396 -391q-139 -56 -304.5 -56t-305.5 57q-281 114 -393 390q-56 134 -56 297t55 297q114 277 396 391q137 55 303.5 55z" />
    <glyph glyph-name="Odieresis" unicode="&#xd6;" horiz-adv-x="1652" 
d="M1241 1782q14 -39 14 -77t-14 -73q-30 -76 -102 -102q-37 -16 -75 -16t-73 14q-73 29 -104 102q-15 40 -15 75t15 77q51 115 177 115t177 -115zM590 1897q82 -1 136 -55t55 -136q0 -82 -54 -136q-55 -56 -137 -56q-80 0 -136 56t-56 135q0 37 16 77q28 72 102 102
q34 14 74 13zM539 417q113 -116 287 -116t288 116q112 118 112 300t-112 300q-114 116 -288 116t-286 -116q-113 -117 -113 -299.5t112 -300.5zM825.5 1460q166.5 0 306.5 -56q282 -114 394 -390q56 -134 56 -297t-56 -297q-113 -274 -396 -391q-139 -56 -304.5 -56
t-305.5 57q-281 114 -393 390q-56 134 -56 297t55 297q114 277 396 391q137 55 303.5 55z" />
    <glyph glyph-name="multiply" unicode="&#xd7;" 
d="M148 266l276 276l-278 279l192 192l278 -279l277 277l187 -188l-276 -276l278 -279l-191 -192l-280 278l-275 -276z" />
    <glyph glyph-name="Oslash" unicode="&#xd8;" horiz-adv-x="1667" 
d="M1114 417q112 118 112 296q0 85 -31 173l-547 -547q79 -38 171 -38q181 0 295 116zM831 1133q-179 0 -292 -117q-112 -117 -112 -299q0 -95 34 -180l553 553q-92 43 -183 43zM71 717q0 163 55 297q114 277 396 391q137 55 304 55q245 0 435 -123l122 123l194 -193
l-122 -121q127 -185 127 -429q0 -163 -56 -297q-113 -274 -396 -391q-139 -56 -304 -56q-238 0 -426 118l-117 -118l-193 193l113 113q-132 189 -132 438z" />
    <glyph glyph-name="Ugrave" unicode="&#xd9;" horiz-adv-x="1487" 
d="M359 1885h368l217 -340h-300zM1371 579q0 -289 -167 -450q-168 -156 -461 -156t-459 157q-167 157 -167 449v855h343v-842q0 -142 75 -216t208 -74q206 0 265 162q20 55 20 128v842h343v-855z" />
    <glyph glyph-name="Uacute" unicode="&#xda;" horiz-adv-x="1487" 
d="M529 1545l217 340h368l-285 -340h-300zM1371 579q0 -289 -167 -450q-168 -156 -461 -156t-459 157q-167 157 -167 449v855h343v-842q0 -142 75 -216t208 -74q206 0 265 162q20 55 20 128v842h343v-855z" />
    <glyph glyph-name="Ucircumflex" unicode="&#xdb;" horiz-adv-x="1487" 
d="M860 1535l-116 147l-116 -147h-291l230 340h353l231 -340h-291zM1371 579q0 -289 -167 -450q-168 -156 -461 -156t-459 157q-167 157 -167 449v855h343v-842q0 -142 75 -216t208 -74q206 0 265 162q20 55 20 128v842h343v-855z" />
    <glyph glyph-name="Udieresis" unicode="&#xdc;" horiz-adv-x="1487" 
d="M980 1897q40 0 75 -14q74 -30 102 -101q15 -36 15 -76t-14 -74q-29 -74 -101 -102q-40 -16 -77 -16t-72 14t-62.5 42t-41.5 62t-14 73t15 77q28 72 102 102q33 14 73 13zM506 1897q78 0 137 -55q55 -57 55 -135t-55 -137q-60 -56 -137 -56q-37 0 -72 14q-73 29 -104 102
q-15 40 -15 75t15 77q50 115 176 115zM1371 579q0 -289 -167 -450q-168 -156 -461 -156t-459 157q-167 157 -167 449v855h343v-842q0 -142 75 -216t208 -74q206 0 265 162q20 55 20 128v842h343v-855z" />
    <glyph glyph-name="Yacute" unicode="&#xdd;" horiz-adv-x="1431" 
d="M508 1545l217 340h368l-285 -340h-300zM892 0h-343v550l-545 884h396l322 -573l320 573h385l-535 -882v-552z" />
    <glyph glyph-name="Thorn" unicode="&#xde;" horiz-adv-x="1348" 
d="M472 898v-334h267q93 0 146 42t53 124q0 84 -53 126t-146 42h-267zM472 1208h272q260 0 401 -128t141 -345t-137 -346q-143 -130 -401 -130h-276v-259h-342v1434h342v-226z" />
    <glyph glyph-name="germandbls" unicode="&#xdf;" horiz-adv-x="1257" 
d="M609 862q221 0 221 174q0 78 -56 126q-57 47 -126 47q-70 -1 -107 -15q-76 -30 -101 -110q-13 -38 -13 -85v-999h-321v1010q0 92 27 179q51 186 250 269q101 43 239 43q138 1 238 -37q102 -38 164 -94t98 -134q35 -78 35 -152q1 -74 -13 -126q-29 -112 -106 -174
q-34 -32 -79 -50q110 -35 169 -124q70 -91 70 -197q0 -205 -129 -323q-129 -117 -352 -117q-121 0 -198 25l29 265q53 -19 133 -19q81 0 135 46t54 128q0 177 -234 177h-46v267h19z" />
    <glyph glyph-name="agrave" unicode="&#xe0;" horiz-adv-x="1236" 
d="M251 1471h367l218 -339h-300zM448 340q59 -68 153 -68t157 66q60 62 60 165t-61 166q-61 64 -155 64q-96 0 -154 -67t-58.5 -162.5t58.5 -163.5zM568.5 1032q145.5 0 246.5 -136v109h310v-1005h-310v109q-106 -136 -297 -136t-325 154q-59 68 -99 168q-35 101 -35 209
q1 108 37 206q72 193 244 281q83 41 228.5 41z" />
    <glyph glyph-name="aacute" unicode="&#xe1;" horiz-adv-x="1236" 
d="M426 1132l217 339h368l-285 -339h-300zM448 340q59 -68 153 -68t157 66q60 62 60 165t-61 166q-61 64 -155 64q-96 0 -154 -67t-58.5 -162.5t58.5 -163.5zM568.5 1032q145.5 0 246.5 -136v109h310v-1005h-310v109q-106 -136 -297 -136t-325 154q-59 68 -99 168
q-35 101 -35 209q1 108 37 206q72 193 244 281q83 41 228.5 41z" />
    <glyph glyph-name="acircumflex" unicode="&#xe2;" horiz-adv-x="1236" 
d="M743 1121l-115 148l-117 -148h-291l231 340h352l231 -340h-291zM448 340q59 -68 153 -68t157 66q60 62 60 165t-61 166q-61 64 -155 64q-96 0 -154 -67t-58.5 -162.5t58.5 -163.5zM568.5 1032q145.5 0 246.5 -136v109h310v-1005h-310v109q-106 -136 -297 -136t-325 154
q-59 68 -99 168q-35 101 -35 209q1 108 37 206q72 193 244 281q83 41 228.5 41z" />
    <glyph glyph-name="atilde" unicode="&#xe3;" horiz-adv-x="1236" 
d="M493 1461q88 0 139 -26t75 -36q24 -11 46 -11q54 0 117 70l176 -170q-109 -155 -294 -155q-95 0 -162 36q-15 5 -46 21t-52 16q-53 0 -118 -69l-175 169q108 155 294 155zM448 340q59 -68 153 -68t157 66q60 62 60 165t-61 166q-61 64 -155 64q-96 0 -154 -67
t-58.5 -162.5t58.5 -163.5zM568.5 1032q145.5 0 246.5 -136v109h310v-1005h-310v109q-106 -136 -297 -136t-325 154q-59 68 -99 168q-35 101 -35 209q1 108 37 206q72 193 244 281q83 41 228.5 41z" />
    <glyph glyph-name="adieresis" unicode="&#xe4;" horiz-adv-x="1236" 
d="M861 1484q37 0 73 -14q75 -30 104 -102q16 -40 16 -76t-14 -73q-30 -75 -102 -103q-36 -15 -76 -15q-40 -1 -74 13q-74 29 -102 103q-15 37 -15 75t15 76q28 72 103 102q35 14 72 14zM388 1484q76 0 136 -56q56 -58 56 -136q0 -76 -56 -136q-59 -55 -137 -55
q-39 -1 -73 13q-73 29 -103 103q-14 37 -14 75t14 76q32 73 104 102q35 14 73 14zM448 340q59 -68 153 -68t157 66q60 62 60 165t-61 166q-61 64 -155 64q-96 0 -154 -67t-58.5 -162.5t58.5 -163.5zM568.5 1032q145.5 0 246.5 -136v109h310v-1005h-310v109
q-106 -136 -297 -136t-325 154q-59 68 -99 168q-35 101 -35 209q1 108 37 206q72 193 244 281q83 41 228.5 41z" />
    <glyph glyph-name="aring" unicode="&#xe5;" horiz-adv-x="1236" 
d="M638 1480q-30 0 -60 -13t-43 -44q-13 -29 -13 -51t8 -42q18 -43 58 -57q19 -8 50.5 -8t62.5 30t31 77q0 48 -32 78t-62 30zM428 1176q-83 77 -83 196q0 54 23 108q44 102 149 148q53 22 109 22q116 0 200 -82t84 -196q0 -113 -83 -196q-86 -82 -204 -82q-117 0 -195 82z
M448 340q59 -68 153 -68t157 66q60 62 60 165t-61 166q-61 64 -155 64q-96 0 -154 -67t-58.5 -162.5t58.5 -163.5zM568.5 1032q145.5 0 246.5 -136v109h310v-1005h-310v109q-106 -136 -297 -136t-325 154q-59 68 -99 168q-35 101 -35 209q1 108 37 206q72 193 244 281
q83 41 228.5 41z" />
    <glyph glyph-name="ae" unicode="&#xe6;" horiz-adv-x="1773" 
d="M1396 599q-36 161 -189 161q-152 0 -182 -161h371zM516 218q61 0 117 27t89 63q-16 58 -21 95h-154q-85 0 -123 -25q-38 -26 -38 -66t32 -67q37 -27 98 -27zM1227 1032q113 0 201 -38q174 -76 251 -275q35 -100 35 -216q0 -38 -6 -100h-682q38 -160 215 -160
q121 0 219 88l208 -193q-169 -165 -433 -165q-263 0 -402 143q-82 -71 -134 -94q-53 -23 -113 -36t-139 -13q-175 0 -282 86q-106 86 -106 233q-1 68 29 128q59 118 224 162q83 20 188 20h194q-14 151 -191 151q-135 0 -277 -83l-106 250q115 76 302 103q62 9 206.5 9
t252.5 -131q119 131 346 131z" />
    <glyph glyph-name="ccedilla" unicode="&#xe7;" horiz-adv-x="1062" 
d="M779 637q-76 96 -173 96q-96 1 -158 -61t-61.5 -168.5t59.5 -168.5q59 -63 158 -63q100 0 177 98l250 -179q-116 -164 -304 -204l-99 -316h-294l108 322q-173 44 -278 183q-105 132 -105 339q0 103 40 201q80 196 282 277q102 39 231 39q130 0 238 -58t180 -162z" />
    <glyph glyph-name="egrave" unicode="&#xe8;" horiz-adv-x="1136" 
d="M197 1471h367l217 -339h-300zM757 606q-41 154 -182 154q-73 0 -120 -39q-46 -42 -64 -115h366zM1077 503q0 -67 -6 -100h-681q38 -160 215 -160q122 0 219 88l207 -193q-165 -165 -442 -165q-238 0 -383 145q-147 146 -147 378q1 238 143 386q144 150 372 150
q224 0 364 -148q139 -148 139 -381z" />
    <glyph glyph-name="eacute" unicode="&#xe9;" horiz-adv-x="1136" 
d="M372 1132l217 339h367l-284 -339h-300zM757 606q-41 154 -182 154q-73 0 -120 -39q-46 -42 -64 -115h366zM1077 503q0 -67 -6 -100h-681q38 -160 215 -160q122 0 219 88l207 -193q-165 -165 -442 -165q-238 0 -383 145q-147 146 -147 378q1 238 143 386q144 150 372 150
q224 0 364 -148q139 -148 139 -381z" />
    <glyph glyph-name="ecircumflex" unicode="&#xea;" horiz-adv-x="1136" 
d="M689 1121l-116 148l-116 -148h-291l230 340h353l231 -340h-291zM757 606q-41 154 -182 154q-73 0 -120 -39q-46 -42 -64 -115h366zM1077 503q0 -67 -6 -100h-681q38 -160 215 -160q122 0 219 88l207 -193q-165 -165 -442 -165q-238 0 -383 145q-147 146 -147 378
q1 238 143 386q144 150 372 150q224 0 364 -148q139 -148 139 -381z" />
    <glyph glyph-name="edieresis" unicode="&#xeb;" horiz-adv-x="1136" 
d="M808 1484q38 0 73 -14q72 -29 104 -102q14 -38 14 -76t-14 -74q-30 -76 -102 -102q-34 -15 -75 -15q-40 -1 -74 13q-73 29 -103 103q-15 41 -15 75t15 72q31 78 101 104q38 16 76 16zM334 1484q82 0 136 -55q55 -55 55 -137q-1 -80 -55 -136q-54 -55 -136 -55
q-40 -1 -74 13q-74 29 -102 103q-16 39 -16 75t16 76q28 72 103 102q35 14 73 14zM757 606q-41 154 -182 154q-73 0 -120 -39q-46 -42 -64 -115h366zM1077 503q0 -67 -6 -100h-681q38 -160 215 -160q122 0 219 88l207 -193q-165 -165 -442 -165q-238 0 -383 145
q-147 146 -147 378q1 238 143 386q144 150 372 150q224 0 364 -148q139 -148 139 -381z" />
    <glyph glyph-name="igrave" unicode="&#xec;" horiz-adv-x="544" 
d="M-105 1471h367l217 -339h-300zM433 0h-320v1005h320v-1005z" />
    <glyph glyph-name="iacute" unicode="&#xed;" horiz-adv-x="544" 
d="M70 1132l217 339h367l-284 -339h-300zM433 0h-320v1005h320v-1005z" />
    <glyph glyph-name="icircumflex" unicode="&#xee;" horiz-adv-x="544" 
d="M387 1121l-116 148l-116 -148h-291l230 340h352l232 -340h-291zM433 0h-320v1005h320v-1005z" />
    <glyph glyph-name="idieresis" unicode="&#xef;" horiz-adv-x="544" 
d="M505 1484q37 0 73 -14q75 -30 104 -102q15 -38 15 -76t-14 -74q-30 -74 -101 -102q-38 -15 -77 -15q-39 -1 -73 13q-74 29 -102 103q-16 39 -16 75t16 76q28 72 103 102q35 14 72 14zM52 1484q58 0 116 -56q55 -56 55 -136q0 -77 -55 -136q-57 -55 -116.5 -55.5
t-93.5 13.5q-73 29 -103 103q-15 41 -15 75t15 72q31 78 101 104q38 16 96 16zM433 0h-320v1005h320v-1005z" />
    <glyph glyph-name="eth" unicode="&#xf0;" horiz-adv-x="1201" 
d="M449 621q-62 -66 -62 -157t62 -152t155 -61q100 0 156 60q62 56 62 153t-62 157q-59 59 -152.5 59t-158.5 -59zM1142 517q0 -118 -39 -217q-79 -200 -284 -286q-98 -41 -218 -41q-236 0 -389 141t-153 351q0 206 136 348q63 65 147 101t169 36q151 0 244 -69
q-60 112 -182 212l-216 -135l-99 156l148 91q-129 70 -151 80l188 208q120 -52 231 -127l189 117l100 -156l-139 -86q142 -134 230 -325t88 -399z" />
    <glyph glyph-name="ntilde" unicode="&#xf1;" horiz-adv-x="1180" 
d="M468 1461q85 0 155 -33q19 -9 37 -17.5t32 -15.5t36 -7q55 0 118 70l175 -170q-109 -155 -294 -155q-93 0 -162 36q-15 5 -46 21t-52 16q-52 0 -118 -69l-175 169q108 155 294 155zM719 1032q153 0 254 -99q102 -106 102 -274v-659h-320v546q0 88 -42 136t-114 49
q-72 0 -118 -46q-48 -48 -48 -144v-541h-320v1005h307v-126q92 153 299 153z" />
    <glyph glyph-name="ograve" unicode="&#xf2;" horiz-adv-x="1209" 
d="M227 1471h368l217 -339h-300zM449 668q-62 -65 -62 -164t62 -167q65 -65 155 -65q42 0 86 18q132 54 132 213q0 104 -62 166q-57 64 -153 64t-158 -65zM995 882q155 -152 155 -379t-155 -379q-157 -151 -391.5 -151t-389.5 151q-155 152 -155 379t155 378t390 151
t391 -150z" />
    <glyph glyph-name="oacute" unicode="&#xf3;" horiz-adv-x="1209" 
d="M402 1132l218 339h367l-285 -339h-300zM449 668q-62 -65 -62 -164t62 -167q65 -65 155 -65q42 0 86 18q132 54 132 213q0 104 -62 166q-57 64 -153 64t-158 -65zM995 882q155 -152 155 -379t-155 -379q-157 -151 -391.5 -151t-389.5 151q-155 152 -155 379t155 378
t390 151t391 -150z" />
    <glyph glyph-name="ocircumflex" unicode="&#xf4;" horiz-adv-x="1209" 
d="M720 1121l-116 148l-117 -148h-290l230 340h352l232 -340h-291zM449 668q-62 -65 -62 -164t62 -167q65 -65 155 -65q42 0 86 18q132 54 132 213q0 104 -62 166q-57 64 -153 64t-158 -65zM995 882q155 -152 155 -379t-155 -379q-157 -151 -391.5 -151t-389.5 151
q-155 152 -155 379t155 378t390 151t391 -150z" />
    <glyph glyph-name="otilde" unicode="&#xf5;" horiz-adv-x="1209" 
d="M469 1461q89 -1 163 -37t97 -36q54 0 118 70l175 -170q-108 -155 -294 -155q-101 -1 -223 65q-14 8 -37 8q-53 0 -118 -69l-175 169q108 155 294 155zM449 668q-62 -65 -62 -164t62 -167q65 -65 155 -65q42 0 86 18q132 54 132 213q0 104 -62 166q-57 64 -153 64
t-158 -65zM995 882q155 -152 155 -379t-155 -379q-157 -151 -391.5 -151t-389.5 151q-155 152 -155 379t155 378t390 151t391 -150z" />
    <glyph glyph-name="odieresis" unicode="&#xf6;" horiz-adv-x="1209" 
d="M838 1484q38 0 74 -14q72 -28 104 -102q14 -38 14 -76t-14 -74q-30 -77 -103 -102q-34 -15 -74 -15t-75 14q-71 29 -102 102q-15 41 -15 75t15 76q31 74 103 102q35 14 73 14zM385.5 1484q58.5 0 114.5 -55t56 -137t-54 -136q-56 -56 -116.5 -55.5t-95.5 14.5
q-74 30 -102 102q-15 37 -15 75t14 74q29 75 102 102q38 16 96.5 16zM449 668q-62 -65 -62 -164t62 -167q65 -65 155 -65q42 0 86 18q132 54 132 213q0 104 -62 166q-57 64 -153 64t-158 -65zM995 882q155 -152 155 -379t-155 -379q-157 -151 -391.5 -151t-389.5 151
q-155 152 -155 379t155 378t390 151t391 -150z" />
    <glyph glyph-name="divide" unicode="&#xf7;" 
d="M802 190q0 -36 -14 -72q-29 -72 -100 -103q-34 -15 -90.5 -15t-114.5 56q-55 59 -55 133t55 130q58 56 112.5 55.5t88.5 -14.5q75 -31 102 -100q16 -34 16 -70zM595.5 1132q54.5 0 88.5 -14t76 -56t42 -117.5t-56 -131.5t-130.5 -56t-132.5 56q-55 57 -55 131.5t55 131.5
q58 56 112.5 56zM1097 434h-965v263h965v-263z" />
    <glyph glyph-name="oslash" unicode="&#xf8;" horiz-adv-x="1209" 
d="M836 490q0 38 -9 81l-300 -300q36 -12 81 -12t88 17q90 38 123 130q17 46 17 84zM600 746q-99 0 -162 -68t-63 -175q0 -33 8 -71l301 300q-40 14 -84 14zM59 481q0 252 156 401q154 150 412 150q139 0 261 -71l101 102l178 -175l-98 -98q81 -128 81 -265
q0 -249 -154 -401q-154 -151 -391 -151q-152 0 -281 70l-101 -100l-179 174l97 97q-82 129 -82 267z" />
    <glyph glyph-name="ugrave" unicode="&#xf9;" horiz-adv-x="1180" 
d="M214 1471h368l217 -339h-300zM1075 430q0 -220 -141 -346q-130 -111 -344 -111t-350 117q-135 117 -135 341v574h321v-546q0 -140 98 -175q34 -12 87 -12t87 34q58 60 58 153v546h319v-575z" />
    <glyph glyph-name="uacute" unicode="&#xfa;" horiz-adv-x="1180" 
d="M389 1132l217 339h368l-285 -339h-300zM1075 430q0 -220 -141 -346q-130 -111 -344 -111t-350 117q-135 117 -135 341v574h321v-546q0 -140 98 -175q34 -12 87 -12t87 34q58 60 58 153v546h319v-575z" />
    <glyph glyph-name="ucircumflex" unicode="&#xfb;" horiz-adv-x="1180" 
d="M707 1121l-116 148l-117 -148h-291l231 340h352l231 -340h-290zM1075 430q0 -220 -141 -346q-130 -111 -344 -111t-350 117q-135 117 -135 341v574h321v-546q0 -140 98 -175q34 -12 87 -12t87 34q58 60 58 153v546h319v-575z" />
    <glyph glyph-name="udieresis" unicode="&#xfc;" horiz-adv-x="1180" 
d="M824 1484q79 0 136 -56t57 -136q-1 -38 -15 -74q-29 -73 -101 -102q-37 -15 -76 -15t-74 14q-74 30 -102 102q-15 37 -15 75t15 76q28 72 103 102q36 14 72 14zM350 1484q76 0 137 -56q56 -58 56 -136q0 -76 -56 -136q-59 -55 -137 -55q-39 -1 -73 13q-73 29 -103 103
q-14 37 -14 75t14 76q32 73 104 102q34 14 72 14zM1075 430q0 -220 -141 -346q-130 -111 -344 -111t-350 117q-135 117 -135 341v574h321v-546q0 -140 98 -175q34 -12 87 -12t87 34q58 60 58 153v546h319v-575z" />
    <glyph glyph-name="yacute" unicode="&#xfd;" horiz-adv-x="1186" 
d="M401 1132l217 339h368l-285 -339h-300zM438 -412h-350l344 633l-423 784h368l228 -452l224 452h351z" />
    <glyph glyph-name="thorn" unicode="&#xfe;" horiz-adv-x="1236" 
d="M479 337q60 -65 156 -65q95 0 154 68t59 163.5t-59 162.5t-155 67t-155 -65q-60 -62 -60 -164t60 -167zM433 909q102 123 290 123t321 -153q62 -71 98 -169t36 -206t-35 -209q-80 -199 -247 -281q-83 -41 -186 -41q-173 0 -277 120v-503h-320v1885h320v-566z" />
    <glyph glyph-name="ydieresis" unicode="&#xff;" horiz-adv-x="1186" 
d="M836 1484q79 0 136 -56t57 -136q0 -39 -14 -74q-29 -72 -102 -102q-37 -15 -76 -15t-74 14q-74 30 -101 102q-16 39 -16 75t16 76q28 72 102 102q36 14 72 14zM363 1484q79 0 137 -56q55 -56 55 -136q0 -77 -55 -136q-57 -55 -137 -55q-39 0 -74 14q-73 29 -103 102
q-14 37 -14 75t14 76q32 72 104 102q36 14 73 14zM438 -412h-350l344 633l-423 784h368l228 -452l224 452h351z" />
    <glyph glyph-name="afii61352" unicode="&#x2116;" horiz-adv-x="2472" 
d="M1454 0h-329l-653 874v-874h-342v1434h328l653 -875v875h343v-1434zM2182 1074q0 36 -12 64q-12 30 -44 64q-34 34 -84 34q-117 0 -158 -97q-11 -29 -11 -65t12 -66q25 -63 81 -84q28 -13 60 -13q66 0 112 45q20 22 33 52q11 30 11 66zM2027 1453q167 0 280 -107
q112 -112 112 -273q1 -77 -29 -148q-60 -144 -207 -203q-73 -29 -156 -29q-167 0 -280 109q-50 49 -82 120q-29 76 -29 152q0 160 111 272q113 107 280 107zM2399 341h-743v250h743v-250z" />
  </font>
</defs>
</svg>
